<svg xmlns="http://www.w3.org/2000/svg" version="1.1" xmlns:xlink="http://www.w3.org/1999/xlink" xmlns:svgjs="http://svgjs.dev/svgjs" width="2000" height="2250" viewBox="0 0 2000 2250"><g transform="matrix(1,0,0,1,3.410605131648481e-13,0)"><svg viewBox="0 0 320 360" data-background-color="#90adbb" preserveAspectRatio="xMidYMid meet" height="2250" width="2000" xmlns="http://www.w3.org/2000/svg" xmlns:xlink="http://www.w3.org/1999/xlink"><g id="tight-bounds" transform="matrix(1,0,0,1,-5.684341886080802e-14,0)"><svg viewBox="0 0 320 360" height="360" width="320"><g><svg></svg></g><g><svg viewBox="0 0 320 360" height="360" width="320"><g><path d="M85.508 32.884c0-1.117 0.558-2.233 1.675-2.233 1.117 0 2.233 0.558 2.234 2.233 0.558 0 1.675 0 2.233-0.558 2.233 0 4.467-0.558 6.141 0 1.675 0.558 2.792 0.558 4.467 1.117 1.675 0.558 2.792 0 3.908-0.559 2.233-0.558 3.908-1.675 6.141-2.233 1.117-0.558 1.675-0.558 2.792-0.558 1.117-0.558 2.233-0.558 3.908-1.117 2.792-0.558 5.583-1.117 7.817-2.233 2.233-1.117 4.467-1.117 6.699-1.675 1.117 0 1.675-0.558 2.792-1.117 0.558 0 0.558-0.558 1.116-1.116 1.117-0.558 1.675-1.117 2.792-0.559 0.558 0.558 1.675 0.558 2.233 0h0.559c3.35 0 6.7-0.558 10.608 0 0.558 0 1.117 0 1.116 0 1.675-1.117 3.908-1.117 6.142-1.116 0.558 0 1.675 0 2.233 0h0.558c2.233 0 4.467 0 6.142 0.558 1.675 0 2.792 0.558 4.466 1.117 1.675 0 2.792 0 4.467 0.558 1.117 0 2.233 0 3.35 0 0.558 0 1.117 0 1.116 0 2.233 0.558 4.467 0.558 6.7 0.558 1.675 0.558 3.35 1.117 5.583 1.117 0.558 0 1.117 0 1.675 0 0.558 0 1.117 0.558 1.675 0.558l0.558 0.559c2.233 0 3.908 1.117 6.142 1.116 0.558 0 1.675 0 2.233 0.559 1.675 1.117 3.908 1.675 6.141 1.675 1.117 0 1.675 0.558 2.234 1.116 1.675 0.558 2.792 1.117 4.466 1.675 1.117 0.558 2.233 0 3.35 0.558 1.675 0.558 3.908 1.117 5.583 2.792 1.117 1.117 2.233 1.117 3.908 2.233 0.558 0 1.117 0.558 1.675 1.117 1.675 1.117 3.35 2.233 5.025 2.791 0.558 0 1.117 0.558 1.675 0.559 1.675 1.117 3.35 2.792 5.583 3.908 1.117 0.558 1.675 1.117 2.792 1.675h0.558c1.675 1.675 3.908 2.792 5.583 4.466 1.675 1.675 2.792 2.792 5.025 3.909 0 0 0 0 0 0.558 0.558 1.117 1.117 1.675 2.233 2.233 1.117 0.558 1.675 1.117 2.234 1.675 1.675 1.117 3.35 2.233 4.466 3.35 0.558 0.558 1.117 1.117 2.233 2.233 0.558 0.558 1.117 1.117 1.675 1.117 2.233 0.558 3.35 2.233 5.025 3.908 1.117 1.117 2.792 2.792 3.908 3.908 0.558 0.558 1.117 1.675 1.675 2.792 1.117 3.35 2.792 6.7 4.467 9.491 0 0 0 0.558 0.558 1.117v0.558c1.117 1.117 1.675 2.792 2.792 3.908 0.558 0.558 0.558 1.117 1.116 1.675 1.117 1.675 1.675 3.908 2.792 5.583 1.675 2.792 2.792 5.583 3.908 8.375v0.558c0.558 1.117 1.117 2.233 1.675 3.908 0 1.117 1.117 2.233 1.675 3.909 0.558 2.792 2.233 5.583 2.791 8.933 0 0.558 0.558 1.117 0.559 2.233 0.558 1.675 1.117 3.35 1.675 5.025 0 0.558 0.558 1.117 1.116 1.675 1.117 1.117 1.117 2.233 1.117 3.35-0.558 2.233 0 4.467 0.558 6.699 0 0.558 0 1.117 0 2.234 0.558 2.233 1.117 5.025 1.117 7.258 0 0.558 0 1.675 0 2.233 0 1.675 0.558 3.35 1.675 5.025 0 0.558 0.558 0.558 0.558 0.558 0.558 0.558 1.117 1.675 1.675 2.233 0.558 0.558 0.558 0.558 1.117 1.117 1.117 1.117 1.675 2.233 1.675 3.908 0 0.558-0.558 1.675-0.559 2.233 0 0.558 0 1.675 0.559 2.234 0.558 0.558 0.558 1.117 0.558 1.675 0 0.558-0.558 1.117-1.117 1.116v0c-0.558 1.675-2.792 2.233-3.35 3.908-0.558 2.233-1.117 4.467-1.674 6.7-0.558 1.675-0.558 2.792-0.559 4.467 0 1.675-0.558 2.792-0.558 4.466-0.558 2.233-1.117 4.467-1.675 6.7 0 1.117-0.558 2.233-0.558 3.35 0.558 0.558 1.117 1.117 1.675 1.116 1.117 1.117 2.233 2.233 3.349 3.35 0.558 0.558 0.558 1.117 0 1.117-0.558 0.558-1.117 0.558-1.674 0.558-0.558-0.558-1.675-1.117-2.234-1.116-0.558-0.558-1.675-1.117-2.791-0.559 0 1.117-0.558 2.233-0.559 2.792-0.558 1.117-1.117 2.792-1.116 3.908-0.558 2.233-1.675 3.908-2.233 6.142-1.117 2.792-2.233 5.025-3.35 7.258-0.558 1.117-1.117 2.233-1.675 3.35v0c0 1.675-1.675 3.35-2.234 5.024-1.117 2.233-2.233 4.467-3.349 7.258-0.558 1.117-1.117 2.233-1.675 2.792-1.117 2.792-2.233 5.025-3.909 7.258-1.117 1.675-2.233 2.792-3.349 3.35-1.117 1.117-2.233 2.233-3.35 3.35-0.558 0.558-1.117 1.117-1.675 1.675-0.558 0.558-0.558 0.558-1.117 1.116-1.117 1.675-2.792 2.792-3.908 4.467-1.117 1.117-1.675 2.233-3.35 3.35-1.117 1.117-2.233 2.792-3.908 3.35-0.558 0.558-1.117 1.675-1.675 2.233-0.558 0.558-1.117 1.675-1.675 2.233 0 1.117 0.558 2.233 0.558 2.792 0 1.675-1.675 2.233-2.791 1.116-1.675-1.117-1.675-1.117-3.35 0-1.675 1.117-3.35 2.792-5.583 3.35-0.558 0-0.558 0.558-1.117 0.559-1.117 0.558-1.675 1.675-2.792 2.233-1.117 1.117-2.792 1.675-3.908 2.791-0.558 0.558-1.117 0.558-1.675 1.117-1.675 1.117-3.35 1.675-5.024 3.35-0.558 0.558-1.117 0.558-1.675 1.117 0 0.558 0 0.558 0 1.116 0 1.117-1.117 2.233-2.792 1.675-1.675-0.558-2.792 0-4.466 0-1.675 0.558-3.35 1.675-5.025 2.233-0.558 0-1.117 0.558-1.675 1.117-1.675 1.117-3.35 1.675-5.025 2.233-1.117 0-2.233 1.117-3.35 1.117-0.558 0-1.117 0.558-1.675 0.558h-0.558c-2.233 1.675-4.467 2.792-6.7 4.467-0.558 0-0.558 0.558-1.117 1.116-0.558 1.117-1.117 1.675-2.233 1.675-2.792 0-3.908 2.233-3.35 4.467 0 0.558 0.558 1.117 0.559 1.675 0.558 1.117 0 2.233-0.559 2.791-0.558 0.558-2.233 0.558-2.791-0.558-1.117-1.117-1.675-2.233-2.234-3.908-0.558-1.117-1.675-2.233-2.791-2.792-1.117-0.558-2.233-0.558-3.35 0-0.558 0-0.558 0.558-1.117 0.558-1.117 1.117-2.792 1.675-4.466 1.117-0.558 0-1.675 0-1.675 0.558-0.558 0.558-0.558 1.675 0 2.234 1.117 1.117 0.558 2.233 0.558 3.908 0 2.233-1.675 3.35-3.908 2.233-0.558-0.558-1.117-0.558-1.675-1.117-0.558 0-0.558-0.558-0.558-1.116-0.558-0.558-0.558-1.675-1.117-2.792-1.117 0.558-2.233 0.558-3.35 1.117-0.558 0-1.117 0.558-1.675 0.558-1.675 0-2.233 0-2.791-1.675-0.558-1.675-1.675-1.675-2.792-2.233-2.233-0.558-5.025-0.558-7.258-1.675h-0.558c-2.233-1.675-4.467-1.675-7.258-1.675-1.675 0-3.35 0.558-5.025 0.558-1.675 0-2.792 0.558-3.908 1.675-0.558 0.558-1.117 1.117-1.675 1.117-0.558-0.558-0.558-1.117-1.117-1.675v-0.558c0-0.558-0.558-1.117-1.116-0.559-1.117 0.558-2.233-0.558-3.35-1.116-0.558-0.558-1.675-1.675-1.675-2.792-0.558-0.558-1.117-1.117-1.675-1.116-1.117 0-2.792-0.558-3.908-0.559-0.558 0-1.117 0-1.117-0.558-0.558-0.558-1.117-0.558-2.233-0.558-0.558 0-0.558-0.558-1.117-0.559 1.117 1.117 1.675 2.233 2.233 3.35 0 0.558 0.558 0.558 0.559 1.117 0.558 1.117 0 1.675-1.675 1.675-1.117 0-1.117 0-1.675 0.558 0 1.117 0 1.675 0 2.792 0 0.558 0 1.117-1.117 1.675 0 0-0.558 0-0.558 0.558-0.558 0.558-0.558 1.117 0 1.675 1.675 1.117 2.792 1.675 4.466 2.233 1.675 0 1.675 1.117 2.234 2.233 0.558 1.117 0 1.675-0.559 2.792-1.117 1.117-2.233 2.233-3.35 3.35-1.675 0.558-2.792 2.233-4.466 2.233-1.117 0-2.233-0.558-2.792-1.675-0.558-2.792-0.558-5.025 0.559-7.816 0-0.558 0.558-1.117 0-1.675-5.025 0-5.025-1.117-5.025-1.675 0-1.117 0.558-1.675 0.558-2.792 0.558-1.117 0-1.675-1.675-2.233-0.558 0-1.117 0-1.675 0-0.558 0-0.558-0.558-1.675-0.558 1.117-0.558 1.675-0.558 2.792-1.117-0.558-2.233-1.117-3.908-2.792-5.025-0.558-0.558-1.117-1.117-1.116-2.233 0-1.675-1.117-2.792-1.675-3.908-1.117-1.675-3.35-2.233-5.025-2.233-1.675-0.558-2.792-0.558-4.467-1.117-1.675-0.558-3.35-2.233-5.024-2.792-0.558-0.558-1.117-1.117-2.234-1.674-2.233-1.117-3.908-2.792-5.583-4.467-1.117-0.558-1.675-1.675-2.791-2.233-1.117-1.117-1.675-2.233-2.792-2.792-1.117-1.117-2.233-2.233-3.908-3.35-1.675-1.117-2.792-2.792-4.467-4.466-1.117-1.675-2.792-2.792-4.466-3.908-0.558 0-1.117 0-1.675 0-0.558 0-1.117 0.558-1.675 0.558-1.675 0.558-2.792 1.675-4.467 2.233 0.558-0.558 0.558-0.558 0-1.675-0.558-0.558-1.117-1.117-1.674-1.116-1.117 0-2.233 0-3.35 0-2.233 0-4.467 0.558-6.7 0.558-1.675 0-3.908 0.558-5.583 1.117 0.558 1.117 0.558 1.675 1.116 2.791-1.117 0.558-2.233 0.558-3.35 0.558-0.558 0-1.675 0.558-2.233 1.117-0.558 0-0.558 0.558-1.116 0-1.117-0.558-2.233 0-3.35 0.558h-0.559c0 0 0-0.558 0.559-0.558 0.558-0.558 1.117-1.117 1.675-1.675 0.558-0.558 1.117-0.558 2.233-1.117-0.558-0.558-0.558-1.117-0.558-1.116-0.558-0.558-1.117-0.558-1.675 0-0.558 0.558-1.117 1.117-1.675 1.675-0.558 0.558-1.117 0.558-1.675 0-0.558-0.558-0.558-1.117 0-1.675 0-0.558 0.558-1.117 1.116-1.675 0.558-0.558 0.558-1.117 1.117-1.675-1.117-1.117-1.675-2.233-2.792-2.792-1.675-1.117-3.35-2.792-4.466-4.466-1.117-2.233-2.792-3.908-5.025-5.025-0.558-0.558-1.117-1.117-1.675-1.675-0.558-0.558-0.558-0.558-1.116-1.117-1.675 0.558-2.792 1.675-4.467 2.234-0.558 0-0.558 0.558-1.117 1.116-0.558 1.117-1.675 1.117-2.791 1.117-0.558 0-1.117-0.558-0.558-1.117 0.558-1.117 1.117-2.233 2.791-1.675 0 0 0.558 0 0.558-0.558 1.117-1.117 2.233-2.792 3.909-3.908-0.558-1.675-1.675-2.792-2.234-3.908-0.558-0.558-0.558-1.117-0.558-2.234 0-0.558 0-0.558-0.558-1.116 0 0-0.558 0-1.117 0.558-0.558 0.558-1.675 1.117-2.791 0 0-0.558 0-1.117 0.558-1.675l0.558-0.558c1.675-0.558 1.675-2.233 1.675-3.908v-0.559c-0.558-1.117-0.558-1.675 0.558-2.791 1.675-1.117 3.35-3.35 3.909-5.025 0.558-1.117 1.675-1.675 2.791-2.792 1.117-1.117 2.233-2.233 2.792-3.908h0.558c2.233 0.558 2.792-1.117 3.908-2.791 0-0.558 0-1.117 0.559-1.117 1.117-1.117 1.117-2.233 0.558-3.908 0-0.558-0.558-1.675-0.558-2.233 0-0.558 0-0.558-0.559-1.117-1.675-1.117-1.675-2.233 0-3.35 1.117-0.558 1.117-1.675 1.675-2.233 0.558-1.117 0.558-2.233 0.559-3.908-0.558-1.675-0.558-3.908-1.117-5.583-0.558-2.233-1.117-5.025-1.675-7.259 0-0.558 0-0.558 0-1.116 0-1.675 0-2.792-0.558-4.467-0.558-0.558-0.558-1.675-0.559-2.233-0.558-1.675-1.117-2.792-2.791-3.35-1.675-1.117-3.908-1.675-5.583-2.791-0.558-0.558-1.117 0-1.675 0.558-0.558 1.117-1.675 2.233-2.234 3.35-0.558 0.558-1.117 1.675-1.675 2.791-1.117 1.117-3.35 2.233-5.024 0.559-0.558-1.117-1.117-1.675 0-2.792 1.117-1.675 2.233-3.35 3.908-4.466 0.558-0.558 1.117-1.675 1.675-2.234 0.558-1.117 0.558-2.233 0.558-3.35-0.558-2.233-1.117-4.467-1.117-7.258 0-2.792 0-5.025 0.559-7.816 0.558-1.117 0.558-2.792 1.116-3.908 0-0.558 0.558-1.675 1.117-2.233 1.117-1.117 2.233-2.233 2.792-3.909 0.558-1.675 1.675-3.35 1.675-5.024 0-0.558 0.558-1.117 0.558-1.675 0-0.558 0.558-1.675 0.558-2.234-0.558-1.675 0-2.792 0.558-3.908 0.558-1.117 1.117-2.792 1.675-3.908 1.117-2.233 1.117-5.025 3.35-7.258 0.558-1.117 1.117-2.233 1.675-3.35 0.558-2.233 1.675-3.908 2.792-5.583 0.558-0.558 0.558-0.558 0.558-1.117 0.558-1.675 1.675-3.35 2.792-5.025 1.117-1.675 1.117-3.35 1.675-5.024 0-0.558 0-1.117 0.558-1.675 1.675-1.675 1.117-3.908 0.558-6.142-1.117-2.792-1.675-5.583-1.116-8.374 0-0.558 0-1.117 0.558-1.117 0.558-1.117 0.558-1.675 1.117-2.792v-0.558c1.117-1.117 2.233-2.792 3.908-3.35 2.233-1.117 4.467-1.675 7.258-2.233 2.233 0 4.467-1.117 6.141-3.35 0-0.558 0.558-0.558 1.117-1.117l0.558-0.558c0.558-1.117 1.117-1.675 1.675-2.233 1.117-1.117 2.233-2.792 3.35-3.908 1.117-1.117 2.233-2.792 3.908-4.467l0.559-0.558c1.117-1.117 2.233-2.233 3.349-2.792 1.117-1.117 2.233-2.233 3.35-3.35 1.117-1.117 1.675-2.233 2.792-3.35 1.117-0.558 2.233-1.675 3.35-2.791 1.117-1.117 2.233-2.233 2.791-2.792 1.117-1.117 2.792-2.233 3.909-2.791 1.117-0.558 2.233-1.117 2.791-2.792 0.558-1.675 1.117-2.792 1.675-4.466 0-1.117 0.558-2.233 1.117-3.35 0.558 0 1.117 0 2.233-0.558-0.558-0.558-1.117-0.558-1.117-1.117 0-0.558 0.558-1.117 0.559-1.117 0-0.558 0.558-1.117 0.558-1.675 0 0 0.558 0 0.558-0.558 0 0 0.558 0 0.559-0.558-1.117 0.558-1.675 0-2.234-0.559 0.558 0.558 1.117 0.558 2.234 1.117 0 0 0.558 0 0.558-0.558 0-0.558 0-1.117 0-1.117 0 0-0.558 0-1.117 0-0.558 0-1.117 0.558-1.675 0.558zM182.097 295.292c0-0.558-0.558-0.558-0.559-1.117-0.558-1.117 0-1.675 0.559-2.233 0.558-0.558 1.117-0.558 2.233-0.558 1.117 0.558 1.675 1.117 1.675 2.233 0 0.558 0 1.675 0 2.233 0.558 2.233 0.558 2.233 2.791 2.233 1.117 0 2.233 0 3.35 0 2.233-0.558 4.467-1.675 6.7-2.233 2.233-0.558 4.467-1.117 6.7-1.675 0.558 0 1.117 0 2.233 0 2.233 0.558 3.908 0 5.583-1.117 0.558-0.558 1.675-0.558 2.233-1.116 1.117-0.558 2.233-0.558 3.35-1.117 2.792-1.675 5.583-2.792 7.817-4.466 1.675-1.117 3.35-2.233 5.024-3.35 1.675-1.117 3.35-2.233 5.025-3.35 1.117-0.558 2.792-1.675 3.908-2.792 2.233-1.675 3.908-3.35 6.142-4.466 1.117-0.558 1.675-1.117 2.233-1.675 1.117-0.558 1.675-1.675 2.792-2.233 0.558-0.558 1.117-1.117 2.233-1.675 0.558-0.558 0.558-0.558 0.558-1.117 1.675-1.117 3.35-3.35 4.467-5.025 1.117-1.117 2.233-2.233 3.35-3.908 1.675-1.675 2.792-3.908 4.466-6.141 1.117-1.117 2.233-2.792 2.792-3.909 1.117-2.233 2.233-4.467 3.908-6.141v-0.558c1.117-2.233 2.233-4.467 3.35-6.7 1.675-2.792 2.792-6.141 4.466-8.933 0.558-1.117 1.117-2.233 1.117-3.35 1.117-2.233 1.675-4.467 2.233-6.7 0-0.558 0-0.558 0.559-1.116 1.675-3.35 2.792-6.7 3.349-10.608 0.558-2.233 1.117-4.467 1.675-6.7 1.117-3.35 1.117-6.141 1.675-9.491 0.558-2.233 0.558-5.025 0.559-7.258 0.558-3.35 0.558-7.258 0-10.608 0-2.792-0.558-6.141-0.559-8.933 0-2.792-0.558-5.025-1.116-7.817-0.558-2.792-1.117-5.025-1.675-7.816-1.117-2.233-1.675-4.467-2.234-7.258-0.558-2.233-1.675-3.908-1.674-6.142 0-1.675-0.558-3.35-2.234-3.908-1.675-0.558-2.792-1.117-4.466-2.233-3.35-2.233-5.025-5.025-4.467-8.375 0-1.675 0.558-3.908 1.117-5.583 0.558-1.675 1.117-3.35 0-4.467-0.558-1.675-1.675-2.792-2.233-3.908-1.117-1.675-1.675-2.792-2.792-3.908-1.117-2.233-2.233-4.467-3.908-6.141-2.233-2.792-3.908-5.583-6.7-7.817l-0.558-0.558c-1.675-2.233-3.35-4.467-5.583-6.142-1.117-1.117-2.233-2.233-3.35-2.791-0.558-0.558-1.117-1.117-2.233-1.675-1.675-1.117-3.35-1.675-4.467-2.792-1.675-1.675-3.908-2.792-5.583-3.908 0 0-0.558 0-0.558-0.558-2.233-1.117-3.908-1.675-6.142-2.792-2.233-1.117-4.467-1.675-6.7-1.675-0.558 0-0.558 0-1.116 0-0.558-0.558-1.675-0.558-2.233-0.558-0.558 0-0.558 0-1.117 0-1.117-0.558-2.792 0-3.908 0-2.233 0.558-4.467 0.558-6.7-0.558-2.792-1.117-5.025-2.233-7.258-3.35-1.675-1.117-2.792-2.233-4.467-3.35-3.35-2.792-6.7-6.141-10.608-8.933 0.558-2.792-0.558-3.35-2.791-3.35-1.117 0-2.233 0.558-3.35 1.117-0.558 0.558-0.558 0.558-1.117 1.116-1.675 1.117-2.792 2.792-4.466 3.909-2.792 1.675-3.908 1.117-6.142 0-0.558-0.558-1.117-1.117-1.675-1.675-1.117-1.117-2.233-2.792-2.791-3.909-1.117-2.233-3.35-2.233-5.583-2.233-1.117 0-2.792 0.558-3.908 0.558-2.233 0-4.467 1.117-5.584 2.792-1.117 1.675-2.233 3.35-3.908 5.025-0.558 0.558-1.675 1.117-2.233 2.233-1.117 1.117-2.233 1.117-3.35 0-0.558-0.558-1.117-0.558-1.675-1.117-0.558 0.558-1.117 1.117-1.117 1.675-0.558 1.117-1.117 2.233-1.674 3.909-0.558 1.675-1.675 3.35-2.792 4.466-0.558 0.558-0.558 0.558-1.117 1.117-0.558 1.117-2.233 1.675-3.35 1.675-1.117 1.117-2.233 2.792-2.791 3.908-0.558 1.117-1.117 2.233-1.675 3.908-0.558 0.558-0.558 1.675-1.117 2.233-0.558 1.117-0.558 1.675-0.558 2.792 0.558 1.675-0.558 2.233-2.233 2.791-1.117 0-1.117 0-1.675 1.117 0 1.675 0.558 2.792 1.116 4.467 0.558 0.558 1.117 1.675 1.117 2.233 0 1.117 0.558 1.675 1.675 2.233 0.558 0.558 1.117 1.117 1.675 1.117 0.558 0 0.558 0.558 1.117 0.558 0.558 0.558 1.117 0 1.116-0.558 0.558-1.675 1.117-3.35 1.117-5.025 0.558-2.233 0.558-3.908 1.116-6.142 0.558-1.117 1.117-1.675 1.675-2.233 0 0 0.558 0 1.117 0v0.559c-0.558 2.792-1.675 6.141-2.233 8.933-0.558 1.117-0.558 2.233-1.117 3.349 0 0.558-0.558 1.117-1.116 1.117-1.117 0.558-2.233 1.117-3.35 1.117-0.558 0-1.117 0-1.675 0-1.117-0.558-2.233-1.675-3.35-2.234-0.558-0.558-1.117-1.117-1.675-1.674-0.558-1.117-1.117-2.233-1.675-3.35-0.558-1.117-1.117-1.675-2.233-2.234-0.558-0.558-1.117-0.558-1.675-1.116-1.117-1.117-2.233-1.675-3.908-1.675-0.558 0-1.675 0-2.234 0-0.558 0-1.675 0.558-2.233 1.116-1.117 0.558-1.675 0.558-2.791 0-2.792-1.117-5.583-0.558-8.375 0.559-1.117 0.558-2.233 1.117-3.35 1.116-2.792 0-5.025 0-7.816 0-2.792 0-5.025-0.558-7.817-1.116-1.117 0-2.233 0-3.35 0-2.233 0.558-2.792 2.233-2.233 4.466 0.558 2.233 1.117 5.025 1.117 7.258 0 1.675 0 3.35 0 5.025 0 1.117 0 1.675 0 2.792 0 1.675-0.558 3.35-0.559 5.025-0.558 3.35-2.233 6.141-4.466 8.374-1.675 1.675-3.908 3.35-6.142 3.908-1.117 0.558-2.233 1.117-3.908 1.675-2.792 1.117-5.025 3.35-6.7 6.142-0.558 1.117-1.117 2.233-1.674 3.35-1.117 1.675-1.675 2.792-2.792 4.466-0.558 1.117-1.675 2.233-2.233 3.35-0.558 1.117-1.675 1.675-1.675 2.792-1.117 2.233-1.675 4.467-2.792 6.699-0.558 1.117-0.558 2.792-1.116 3.909-1.117 2.233-1.117 4.467-1.117 7.258 0 0.558 0 1.117 0 2.233 0 2.792-0.558 6.141-0.558 8.933 0 2.792 0 5.583 0.558 8.375 0 1.117 0 2.792 0 3.908 0 2.233 0.558 5.025 0.558 7.258 0 2.233 0 5.025 1.117 7.258v0.558c0.558 2.233 0.558 4.467 1.116 6.7 0 0.558 0 1.117 0.559 1.675 1.117 3.35 1.675 6.141 2.791 9.491 0.558 2.233 1.675 4.467 2.234 6.7 0.558 2.233 2.792 4.467 3.349 7.258v0c1.675 3.35 3.35 6.7 5.584 10.05 0.558 1.117 1.675 2.233 2.233 3.35 1.117 1.675 1.675 3.35 2.791 4.466 0.558 1.117 1.675 2.233 2.234 2.792 0.558 1.117 1.117 2.233 2.233 3.35 1.117 1.117 2.233 2.792 3.35 3.908 1.675 2.792 3.908 5.025 6.141 6.7 1.117 1.117 2.233 1.675 3.35 2.791 0.558 0.558 1.117 0.558 1.117 1.117 0.558 0.558 1.117 1.117 2.233 1.675 4.467 2.233 7.816 5.583 11.725 8.933 1.675 1.675 3.35 3.35 5.583 4.466 2.233 1.675 3.908 3.35 6.7 3.908 0 0 0.558 0 0.558 0.559 1.117 1.117 2.792 1.675 3.908 2.233 2.233 1.117 5.025 2.233 7.258 3.35 0.558 0.558 1.675 0.558 2.233 1.117 1.675 0.558 3.35 1.117 5.025 1.674 1.675 0.558 2.792 1.117 4.467 1.117h0.558c1.117 0.558 1.675 0.558 2.792 0 0.558 0 1.117 0 1.116 0.558 0 0.558 0.558 0.558 1.117 0.559 0.558 0 1.117 0 2.233 0 0.558-0.558 0.558-1.117 1.117-2.234 0.558 0.558 1.117 0.558 1.116 0.559 0.558 1.117 1.675 1.117 2.792 1.116h0.558c1.117 0 1.675 0 2.233-0.558 0-0.558 1.117-0.558 1.675-0.558 1.675 0.558 3.35 0.558 5.025 1.116 1.117 0.558 2.792 0.558 3.35-0.558 0.558-0.558 1.117-1.117 2.233-0.558 1.117 0.558 1.675 0.558 2.792 0 0.558 0 1.117 0 1.117 0 1.675 0.558 2.792 0.558 4.466 1.116 2.233 0.558 2.233 0.558 3.908-1.116 0.558-0.558 1.675-0.558 2.233 0 0.558 1.117 0.558 1.675 0.559 2.791 0.558 0 0.558 0 1.116-0.558 0-1.117 0.558-1.117 1.675-1.675 0.558 0.558 0.558 0.558 1.117 0.558 1.117 1.117 1.675 1.117 2.233-0.558 0-0.558 0-1.117 0.559-1.116 0.558 0 1.117 0.558 1.116 0.558 0.558 1.117 1.675 1.675 2.233 2.791 1.117 1.117 2.792 1.117 3.35 0 0.558-0.558 1.117-0.558 1.675-0.558 0-0.558 0-1.117 0-1.675 1.675 1.117 1.117 1.117 0.559 1.117zM89.417 34.559c1.675 0.558 2.792 0.558 3.349-0.558-1.117 0.558-2.233-0.558-3.349 0.558z" fill="#000000" fill-rule="nonzero" stroke="none" stroke-width="1" stroke-linecap="butt" stroke-linejoin="miter" stroke-miterlimit="10" stroke-dasharray="" stroke-dashoffset="0" font-family="none" font-weight="none" font-size="none" text-anchor="none" style="mix-blend-mode: normal" data-fill-palette-color="tertiary"></path></g><g transform="matrix(1,0,0,1,64,145.18704198436686)"><svg viewBox="0 0 192 69.62591603126629" height="69.62591603126629" width="192"><g><svg viewBox="0 0 192 69.62591603126629" height="69.62591603126629" width="192"><g><svg viewBox="0 0 192 69.62591603126629" height="69.62591603126629" width="192"><g><svg viewBox="0 0 192 69.62591603126629" height="69.62591603126629" width="192"><g id="textblocktransform"><svg viewBox="0 0 192 69.62591603126629" height="69.62591603126629" width="192" id="textblock"><g><svg viewBox="0 0 192 37.552892131318394" height="37.552892131318394" width="192"><g transform="matrix(1,0,0,1,0,0)"><svg width="192" viewBox="2.7 -43.65 287.83 56.3" height="37.552892131318394" data-palette-color="#f6f6f6"><path d="M36.45-3.6L34.65 0.05 22.7 0.05 22.7-3.7 17.9 0.15Q16.3 0.55 14.2 0.55L14.2 0.55Q10.9 0.55 8.28-1.18 5.65-2.9 4.17-5.93 2.7-8.95 2.7-12.6L2.7-12.6Q2.7-16.6 5.3-20.03 7.9-23.45 11.8-25.48 15.7-27.5 19.35-27.5L19.35-27.5Q21.15-27.5 22.7-26.65L22.7-26.65 22.7-33.3 18.25-36.25 18.25-39.45 28.4-43.65 31.95-43.65 31.95-5.1 36.45-3.6ZM17.4-6.95Q20.3-6.95 22.7-8.15L22.7-8.15 22.7-17.15Q22.4-18.95 20.8-20.1 19.2-21.25 16.45-21.25L16.45-21.25Q12.45-21.25 12.45-14.95L12.45-14.95Q12.45-11.45 13.73-9.18 15-6.9 17.45-6.9L17.45-6.9 17.4-6.95ZM56.25-27.55Q61.65-27.55 64.62-23.48 67.6-19.4 67.5-12L67.5-12 49.65-12Q50.2-9.35 51.7-7.78 53.2-6.2 55.6-6.2L55.6-6.2Q59.15-6.2 65.95-9.25L65.95-9.25 67.45-6.15 60.25-0.35Q57.1 0.5 52.7 0.5L52.7 0.5Q48.95 0.5 45.95-1.23 42.95-2.95 41.27-5.95 39.6-8.95 39.6-12.65L39.6-12.65Q39.6-16.65 42.2-20.08 44.8-23.5 48.7-25.53 52.6-27.55 56.25-27.55L56.25-27.55ZM53.55-21.3Q51.5-21.3 50.47-19.93 49.45-18.55 49.35-15.7L49.35-15.7 58.25-15.7Q57.95-18.55 56.9-19.93 55.85-21.3 53.55-21.3L53.55-21.3ZM102.05-27.05L102.05-23.85 89.15 0 82.1 0 74.85-17.7 69.85-20.6 69.85-23.8 81.65-28 83.55-20.45 88.85-7.7 94.55-18.6 87.25-23.4 89.05-27.05 102.05-27.05ZM121.04-27.55Q126.44-27.55 129.42-23.48 132.39-19.4 132.29-12L132.29-12 114.44-12Q114.99-9.35 116.49-7.78 117.99-6.2 120.39-6.2L120.39-6.2Q123.94-6.2 130.74-9.25L130.74-9.25 132.24-6.15 125.04-0.35Q121.89 0.5 117.49 0.5L117.49 0.5Q113.74 0.5 110.74-1.23 107.74-2.95 106.07-5.95 104.39-8.95 104.39-12.65L104.39-12.65Q104.39-16.65 106.99-20.08 109.59-23.5 113.49-25.53 117.39-27.55 121.04-27.55L121.04-27.55ZM118.34-21.3Q116.29-21.3 115.27-19.93 114.24-18.55 114.14-15.7L114.14-15.7 123.04-15.7Q122.74-18.55 121.69-19.93 120.64-21.3 118.34-21.3L118.34-21.3ZM153.74-3.65L151.94 0 135.54 0 135.54-3.2 139.99-7 139.99-33.3 135.54-36.25 135.54-39.45 145.69-43.65 149.24-43.65 149.24-5.1 153.74-3.65ZM173.59-27.55Q177.39-27.55 180.39-25.83 183.39-24.1 185.06-21.08 186.74-18.05 186.74-14.4L186.74-14.4Q186.74-10.45 184.14-7 181.54-3.55 177.61-1.53 173.69 0.5 170.04 0.5L170.04 0.5Q166.29 0.5 163.29-1.23 160.29-2.95 158.61-5.95 156.94-8.95 156.94-12.65L156.94-12.65Q156.94-16.65 159.54-20.08 162.14-23.5 166.04-25.53 169.94-27.55 173.59-27.55L173.59-27.55ZM170.69-21.3Q168.89-21.3 167.91-19.73 166.94-18.15 166.94-15.05L166.94-15.05Q166.94-11 168.51-8.38 170.09-5.75 172.94-5.75L172.94-5.75Q174.79-5.75 175.76-7.35 176.74-8.95 176.74-12.05L176.74-12.05Q176.74-16.1 175.16-18.7 173.59-21.3 170.69-21.3L170.69-21.3ZM208.44 0.45Q206.59 0.45 205.09-0.45L205.09-0.45 205.09 7.05 212.88 9.05 211.09 12.65 191.38 12.65 191.38 9.5 195.84 5.65 195.84-17.55 191.38-20.4 191.38-23.6 202.38-28 204.38-22.4 210.34-27.15Q211.94-27.55 213.99-27.55L213.99-27.55Q217.19-27.55 219.74-25.83 222.28-24.1 223.71-21.08 225.13-18.05 225.13-14.4L225.13-14.4Q225.13-10.45 222.53-7 219.94-3.55 216.01-1.53 212.09 0.5 208.44 0.5L208.44 0.5 208.44 0.45ZM210.74-20.05Q207.69-20.05 205.09-18.55L205.09-18.55 205.09-10.95Q205.09-8.75 206.71-7.28 208.34-5.8 211.34-5.8L211.34-5.8Q215.38-5.8 215.38-12.1L215.38-12.1Q215.38-15.6 214.21-17.82 213.03-20.05 210.74-20.05L210.74-20.05ZM247.18-27.55Q252.58-27.55 255.56-23.48 258.53-19.4 258.43-12L258.43-12 240.58-12Q241.13-9.35 242.63-7.78 244.13-6.2 246.53-6.2L246.53-6.2Q250.08-6.2 256.88-9.25L256.88-9.25 258.38-6.15 251.18-0.35Q248.03 0.5 243.63 0.5L243.63 0.5Q239.88 0.5 236.88-1.23 233.88-2.95 232.21-5.95 230.53-8.95 230.53-12.65L230.53-12.65Q230.53-16.65 233.13-20.08 235.73-23.5 239.63-25.53 243.53-27.55 247.18-27.55L247.18-27.55ZM244.48-21.3Q242.43-21.3 241.41-19.93 240.38-18.55 240.28-15.7L240.28-15.7 249.18-15.7Q248.88-18.55 247.83-19.93 246.78-21.3 244.48-21.3L244.48-21.3ZM279.93-19.85Q278.28-19.85 276.78-18.65L276.78-18.65 276.78-5.65 284.58-3.7 282.78-0.05 263.08-0.05 263.08-3.25 267.53-7.05 267.53-17.55 263.08-20.4 263.08-23.6 274.08-28 275.98-22.6 280.38-27.15Q281.43-27.55 282.73-27.55L282.73-27.55Q285.68-27.55 287.7-26.28 289.73-25 290.53-22.75L290.53-22.75 285.33-16.2 281.78-16.2Q281.73-18.2 281.31-19.03 280.88-19.85 279.93-19.85L279.93-19.85Z" opacity="1" transform="matrix(1,0,0,1,0,0)" fill="#000000" class="wordmark-text-0" data-fill-palette-color="primary" id="text-0"></path></svg></g></svg></g><g transform="matrix(1,0,0,1,0,46.41822869411152)"><svg viewBox="0 0 192 23.207687337154766" height="23.207687337154766" width="192"><g transform="matrix(1,0,0,1,0,0)"><svg width="192" viewBox="-1.45 -38.45 427.71999999999997 51.70000000000001" height="23.207687337154766" data-palette-color="#f6f6f6"><path d="M16.25-23.15L16.25-24.4 25.8-24.4 25.8-23.15 22.3-22.15 14.2 0Q12.1 5.5 9.75 9L9.75 9Q6.9 13.25 2.85 13.25L2.85 13.25Q2.55 13.25 2.2 13.2L2.2 13.2Q0.55 13.2-0.45 12.23-1.45 11.25-1.45 9.68-1.45 8.1-0.05 6.5L-0.05 6.5Q1.6 8.35 3.55 8.35L3.55 8.35Q6.3 8.35 8.2 6.33 10.1 4.3 11.75 0L11.75 0 2.15-22.85-0.35-23.35-0.35-24.4 11.2-24.4 11.2-23.35 8.25-22.9 14.65-6.6 20.2-22.15 16.25-23.15ZM83.6-7.4L83.6-11.7Q77.8-11.7 76.3-8.65L76.3-8.65Q75.65-7.35 75.65-5.4L75.65-5.4Q75.65-2.05 77.95-1.5L77.95-1.5Q78.3-1.4 78.7-1.4L78.7-1.4Q80.3-1.4 81.9-3.08 83.5-4.75 83.6-7.4L83.6-7.4ZM75.6-16.6L75.6-16.6Q74.5-15.85 73.3-15.85 72.1-15.85 71.25-16.65 70.4-17.45 70.4-19.03 70.4-20.6 71.35-21.85 72.3-23.1 73.8-23.7L73.8-23.7Q76.75-24.95 79.4-24.95L79.4-24.95Q85.3-24.95 87.45-22.88 89.6-20.8 89.6-16.5L89.6-16.5 89.6-1.45 93.8-1.15 93.8-0.05 84.25 0.55 83.8-3.65Q81.45 0.6 75.7 0.6L75.7 0.6Q73.1 0.6 71.22-0.98 69.35-2.55 69.35-5.4L69.35-5.4Q69.4-9.2 73.15-11.13 76.9-13.05 83.6-13.05L83.6-13.05 83.6-17.35Q83.6-20.4 82.75-22.05 81.9-23.7 79.6-23.7 77.3-23.7 76.15-21.8L76.15-21.8Q75.4-20.55 75.4-19.15 75.4-17.75 75.6-16.6ZM147.34-0.7L147.34-0.7Q149.09-0.7 150.24-1.83 151.39-2.95 151.39-5.5L151.39-5.5Q151.39-7.55 149.69-8.6L149.69-8.6Q148.39-9.4 146.37-10.18 144.34-10.95 143.27-11.5 142.19-12.05 140.89-12.95L140.89-12.95Q138.34-14.75 138.34-17.85 138.34-20.95 140.92-22.95 143.49-24.95 148.44-24.95L148.44-24.95Q151.54-24.95 153.69-23.63 155.84-22.3 155.84-20.3 155.84-18.3 154.14-17.4L154.14-17.4Q153.34-17 152.54-17L152.54-17 150.74-17.55Q151.04-19.1 151.04-20.38 151.04-21.65 150.24-22.68 149.44-23.7 147.84-23.7L147.84-23.7Q143.94-23.7 143.94-19L143.94-19Q143.94-16.85 145.59-15.8L145.59-15.8Q146.84-14.95 148.79-14.28 150.74-13.6 151.87-13.1 152.99-12.6 154.29-11.7L154.29-11.7Q156.89-10 156.89-6.68 156.89-3.35 154.14-1.4 151.39 0.55 146.89 0.55L146.89 0.55Q141.89 0.55 139.49-1.1L139.49-1.1Q138.09-2.1 138.09-3.55 138.09-5 139.07-5.9 140.04-6.8 141.79-6.85L141.79-6.85Q142.14-0.7 147.34-0.7ZM219.39-1.15L221.79-1.45 222.09-17.3Q222.09-20.25 221.34-21.6 220.59-22.95 218.34-22.95 216.09-22.95 213.91-20.2 211.74-17.45 211.74-15.45L211.74-15.45 211.74-1.45 215.49-1.15 215.49 0 202.09 0 202.09-1.15 205.39-1.45 205.39-35.9 201.09-36.05 201.09-37.25 211.79-38.4 211.79-27.2Q211.79-21.55 211.49-19.55L211.49-19.55 211.79-19.55Q213.14-22.05 215.44-23.4 217.74-24.75 220.39-24.75L220.39-24.75Q228.39-24.75 228.39-17.05L228.39-17.05Q228.39-11.5 228.04-1.45L228.04-1.45 231.49-1.15 231.49 0 219.39 0 219.39-1.15ZM293.43-30.85L293.43-30.85Q293.73-32.15 293.73-33.52 293.73-34.9 292.96-36 292.18-37.1 291.01-37.1 289.83-37.1 289.13-36.8 288.43-36.5 287.93-35.8 287.43-35.1 287.08-34.45 286.73-33.8 286.51-32.63 286.28-31.45 286.16-30.68 286.03-29.9 285.98-28.5 285.93-27.1 285.93-26.4L285.93-26.4 285.93-24.4 293.43-24.4 293.43-23.1 285.93-23.1 285.93-1.45 291.53-1.15 291.53 0 276.23 0 276.23-1.15 279.53-1.45 279.53-23.1 276.08-23.1 276.08-24.4 279.53-24.4 279.53-25.15Q279.53-31.8 282.51-35.13 285.48-38.45 291.03-38.45L291.03-38.45Q294.48-38.45 296.61-37.33 298.73-36.2 298.73-33.75L298.73-33.75Q298.73-31.95 296.93-31L296.93-31Q295.98-30.45 295.11-30.45 294.23-30.45 293.43-30.85ZM352.43-7.4L352.43-11.7Q346.63-11.7 345.13-8.65L345.13-8.65Q344.48-7.35 344.48-5.4L344.48-5.4Q344.48-2.05 346.78-1.5L346.78-1.5Q347.13-1.4 347.53-1.4L347.53-1.4Q349.13-1.4 350.73-3.08 352.33-4.75 352.43-7.4L352.43-7.4ZM344.43-16.6L344.43-16.6Q343.33-15.85 342.13-15.85 340.93-15.85 340.08-16.65 339.23-17.45 339.23-19.03 339.23-20.6 340.18-21.85 341.13-23.1 342.63-23.7L342.63-23.7Q345.58-24.95 348.23-24.95L348.23-24.95Q354.13-24.95 356.28-22.88 358.43-20.8 358.43-16.5L358.43-16.5 358.43-1.45 362.63-1.15 362.63-0.05 353.08 0.55 352.63-3.65Q350.28 0.6 344.53 0.6L344.53 0.6Q341.93 0.6 340.05-0.98 338.18-2.55 338.18-5.4L338.18-5.4Q338.23-9.2 341.98-11.13 345.73-13.05 352.43-13.05L352.43-13.05 352.43-17.35Q352.43-20.4 351.58-22.05 350.73-23.7 348.43-23.7 346.13-23.7 344.98-21.8L344.98-21.8Q344.23-20.55 344.23-19.15 344.23-17.75 344.43-16.6ZM415.82-18.5Q416.67-21.2 418.95-23.1 421.22-25 423.1-25 424.97-25 425.62-24.08 426.27-23.15 426.27-22.55L426.27-22.55Q426.27-20.5 424.77-19.6L424.77-19.6Q423.77-20.4 421.8-20.4 419.82-20.4 417.87-19.18 415.92-17.95 415.92-16.5L415.92-16.5 415.92-1.45 420.42-1.15 420.42 0 406.47 0 406.47-1.15 409.77-1.4 409.77-22.75 405.72-22.95 405.72-24.1 415.92-24.65 415.62-18.5 415.82-18.5Z" opacity="1" transform="matrix(1,0,0,1,0,0)" fill="#000000" class="slogan-text-1" data-fill-palette-color="secondary" id="text-1"></path></svg></g></svg></g></svg></g></svg></g></svg></g></svg></g></svg></g></svg></g><defs></defs></svg><rect width="320" height="360" fill="none" stroke="none" visibility="hidden"></rect></g></svg></g></svg>